<?xml version="1.0" encoding="utf-8"?>
<!-- Generator: Adobe Illustrator 16.0.0, SVG Export Plug-In . SVG Version: 6.00 Build 0)  -->
<!DOCTYPE svg PUBLIC "-//W3C//DTD SVG 1.1//EN" "http://www.w3.org/Graphics/SVG/1.1/DTD/svg11.dtd">
<svg version="1.1" id="Layer_1" xmlns="http://www.w3.org/2000/svg" xmlns:xlink="http://www.w3.org/1999/xlink" x="0px" y="0px"
	 width="841px" height="792px" viewBox="0 0 841 792" enable-background="new 0 0 841 792" xml:space="preserve">
<g>
	<g>
		<path fill="#39474F" d="M521.453,709.934H306c-10.929,0-19.788-8.859-19.788-19.789c0-10.928,8.859-19.787,19.788-19.787h215.454
			c10.929,0,19.788,8.859,19.788,19.787C541.241,701.074,532.382,709.934,521.453,709.934z"/>
	</g>
	<g>
		<path fill="#39474F" d="M413.727,709.934c-10.929,0-19.788-8.859-19.788-19.789V528.027c0-10.93,8.86-19.787,19.788-19.787
			s19.787,8.857,19.787,19.787v162.117C433.514,701.074,424.654,709.934,413.727,709.934z"/>
	</g>
	<path fill="#39474F" d="M414.804,457.23h-2.154c-58.9,0-106.649-47.748-106.649-106.65V162.096
		c0-58.901,47.749-106.649,106.649-106.649h2.154c58.901,0,106.649,47.748,106.649,106.649v188.484
		C521.453,409.482,473.705,457.23,414.804,457.23z"/>
	<g>
		<path fill="#39474F" d="M414.804,536.016h-2.153c-49.532,0-96.1-19.289-131.123-54.313
			c-35.024-35.025-54.313-81.592-54.313-131.123c0-10.929,8.86-19.788,19.789-19.788c10.928,0,19.787,8.859,19.787,19.788
			c0,38.96,15.172,75.589,42.722,103.138c27.549,27.549,64.178,42.721,103.139,42.721h2.153c38.96,0,75.588-15.172,103.139-42.721
			c27.549-27.549,42.721-64.178,42.721-103.138c0-10.929,8.86-19.787,19.789-19.787c10.928,0,19.787,8.858,19.787,19.787
			c0,49.531-19.289,96.097-54.313,131.123C510.901,516.729,464.335,536.016,414.804,536.016z"/>
	</g>
	<g>
		<g>
			<circle fill="#FFFFFF" cx="352.438" cy="244.226" r="9.487"/>
			<circle fill="#FFFFFF" cx="393.546" cy="244.226" r="9.487"/>
			<circle fill="#FFFFFF" cx="434.656" cy="244.226" r="9.487"/>
			<circle fill="#FFFFFF" cx="475.765" cy="244.226" r="9.487"/>
		</g>
		<g>
			<circle fill="#FFFFFF" cx="331.488" cy="224.066" r="9.487"/>
			<circle fill="#FFFFFF" cx="372.597" cy="224.066" r="9.487"/>
			<circle fill="#FFFFFF" cx="413.706" cy="224.066" r="9.487"/>
			<circle fill="#FFFFFF" cx="454.815" cy="224.066" r="9.487"/>
			<circle fill="#FFFFFF" cx="495.924" cy="224.066" r="9.487"/>
		</g>
		<g>
			<circle fill="#FFFFFF" cx="331.488" cy="263.199" r="9.487"/>
			<circle fill="#FFFFFF" cx="372.596" cy="263.199" r="9.487"/>
			<circle fill="#FFFFFF" cx="413.706" cy="263.199" r="9.487"/>
			<circle fill="#FFFFFF" cx="454.815" cy="263.199" r="9.487"/>
			<circle fill="#FFFFFF" cx="495.924" cy="263.199" r="9.487"/>
		</g>
		<g>
			<circle fill="#FFFFFF" cx="352.438" cy="205.093" r="9.487"/>
			<circle fill="#FFFFFF" cx="393.546" cy="205.093" r="9.487"/>
			<circle fill="#FFFFFF" cx="434.656" cy="205.093" r="9.487"/>
			<circle fill="#FFFFFF" cx="475.765" cy="205.093" r="9.487"/>
		</g>
		<g>
			<circle fill="#FFFFFF" cx="331.488" cy="184.934" r="9.487"/>
			<circle fill="#FFFFFF" cx="372.597" cy="184.934" r="9.487"/>
			<circle fill="#FFFFFF" cx="413.706" cy="184.934" r="9.487"/>
			<circle fill="#FFFFFF" cx="454.815" cy="184.934" r="9.487"/>
			<circle fill="#FFFFFF" cx="495.924" cy="184.934" r="9.487"/>
		</g>
		<g>
			<circle fill="#FFFFFF" cx="352.438" cy="165.96" r="9.487"/>
			<circle fill="#FFFFFF" cx="393.546" cy="165.96" r="9.487"/>
			<circle fill="#FFFFFF" cx="434.656" cy="165.96" r="9.487"/>
			<circle fill="#FFFFFF" cx="475.765" cy="165.96" r="9.487"/>
		</g>
		<g>
			<circle fill="#FFFFFF" cx="331.488" cy="145.801" r="9.487"/>
			<circle fill="#FFFFFF" cx="372.597" cy="145.801" r="9.487"/>
			<circle fill="#FFFFFF" cx="413.706" cy="145.801" r="9.487"/>
			<circle fill="#FFFFFF" cx="454.815" cy="145.801" r="9.487"/>
			<circle fill="#FFFFFF" cx="495.924" cy="145.801" r="9.487"/>
		</g>
		<g>
			<circle fill="#FFFFFF" cx="352.438" cy="126.827" r="9.487"/>
			<circle fill="#FFFFFF" cx="393.546" cy="126.827" r="9.487"/>
			<circle fill="#FFFFFF" cx="434.656" cy="126.827" r="9.487"/>
			<circle fill="#FFFFFF" cx="393.546" cy="87.695" r="9.487"/>
			<circle fill="#FFFFFF" cx="434.656" cy="87.695" r="9.487"/>
			<circle fill="#FFFFFF" cx="475.765" cy="126.827" r="9.487"/>
		</g>
		<g>
			<circle fill="#FFFFFF" cx="372.597" cy="106.668" r="9.487"/>
			<circle fill="#FFFFFF" cx="413.706" cy="106.668" r="9.487"/>
			<circle fill="#FFFFFF" cx="454.815" cy="106.668" r="9.487"/>
		</g>
	</g>
</g>
</svg>
